<svg width="271" height="108" viewBox="0 0 271 108" fill="none" xmlns="http://www.w3.org/2000/svg">
<g clip-path="url(#clip0_28_576)">
<path d="M96.1125 47.7439H99.8C100.86 47.7583 101.902 47.4784 102.811 46.9357C103.675 46.3926 104.385 45.6392 104.875 44.7467C105.404 43.8065 105.672 42.743 105.653 41.6654C105.672 40.6038 105.404 39.5566 104.875 38.6346C104.368 37.7602 103.639 37.0342 102.76 36.5298C101.86 36.0141 100.838 35.7467 99.8 35.7553H91.9344V53.9571H96.1125V47.7439ZM96.1125 39.4765H99.2757C99.6653 39.4654 100.051 39.5584 100.392 39.7459C100.714 39.9282 100.977 40.1965 101.153 40.5204C101.342 40.8909 101.44 41.3005 101.44 41.7159C101.44 42.1313 101.342 42.5409 101.153 42.9114C100.978 43.2446 100.715 43.524 100.392 43.7196C100.057 43.9254 99.6693 44.0307 99.2757 44.0227H96.0618L96.1125 39.4765ZM112.334 53.9571H108.258V40.1837H112.013V42.3894C112.134 42.1785 112.27 41.976 112.419 41.7833C112.879 41.2101 113.456 40.7397 114.11 40.4026C114.73 40.0723 115.421 39.8988 116.123 39.8974C116.416 39.8705 116.71 39.8705 117.003 39.8974C117.244 39.9429 117.481 40.0048 117.713 40.0826L116.715 44.4605C116.478 44.3444 116.228 44.254 115.971 44.1911C115.651 44.1075 115.321 44.0679 114.99 44.0732C114.612 44.0709 114.238 44.1454 113.89 44.2921C113.558 44.4224 113.257 44.6235 113.011 44.8814C112.762 45.1446 112.567 45.4534 112.436 45.7907C112.297 46.1565 112.228 46.5448 112.233 46.9357L112.334 53.9571ZM120.098 36.8666C119.884 36.672 119.716 36.4316 119.607 36.1633C119.499 35.8951 119.453 35.606 119.473 35.3175C119.47 35.0461 119.524 34.7772 119.632 34.5278C119.74 34.2785 119.899 34.0543 120.098 33.8695C120.571 33.4752 121.174 33.271 121.79 33.297C122.401 33.2679 123.001 33.4592 123.481 33.8358C123.694 34.0286 123.86 34.2662 123.969 34.5314C124.077 34.7965 124.124 35.0823 124.107 35.368C124.116 35.6518 124.063 35.9342 123.952 36.1957C123.841 36.4573 123.675 36.6919 123.465 36.8834C122.99 37.2735 122.388 37.4771 121.773 37.4559C121.163 37.458 120.571 37.2498 120.098 36.8666ZM119.895 40.2342H123.82V54.0076H119.879L119.895 40.2342ZM139.805 42.4568C140.209 43.4218 140.41 44.459 140.397 45.5044V53.9234H136.371V45.8244C136.385 45.3186 136.299 44.8151 136.117 44.3426C135.976 43.9793 135.713 43.6759 135.373 43.4839C134.985 43.2739 134.544 43.1803 134.104 43.2145C133.395 43.2166 132.71 43.4737 132.176 43.9385C131.931 44.1598 131.735 44.4293 131.601 44.7299C131.449 45.0269 131.374 45.3566 131.381 45.6897V53.9571H127.44V40.1837H131.212V41.9516C131.313 41.8338 131.381 41.7159 131.499 41.598C132.016 41.0744 132.631 40.6567 133.309 40.3689C133.987 40.0548 134.727 39.8939 135.474 39.8974C136.394 39.8671 137.305 40.0822 138.113 40.5204C138.86 40.9537 139.448 41.6149 139.788 42.4063L139.805 42.4568ZM143.492 50.7074C142.872 49.5897 142.557 48.33 142.579 47.0535C142.558 45.7664 142.873 44.4959 143.492 43.366C144.09 42.2859 144.973 41.3897 146.047 40.7751C147.121 40.1605 148.343 39.8511 149.582 39.8806C150.742 39.8693 151.893 40.0927 152.965 40.5373C153.921 40.9309 154.756 41.57 155.384 42.3894L153.219 44.9488C152.968 44.6271 152.672 44.3435 152.339 44.1069C151.993 43.8549 151.611 43.6562 151.206 43.5176C150.797 43.3795 150.369 43.3057 149.937 43.2987C149.294 43.2852 148.66 43.4546 148.11 43.787C147.578 44.1074 147.145 44.5677 146.858 45.1172C146.547 45.7028 146.39 46.3574 146.402 47.0199C146.383 47.7173 146.546 48.4076 146.875 49.0236C147.172 49.5655 147.603 50.0233 148.127 50.3538C148.677 50.6861 149.311 50.8555 149.954 50.8421C150.383 50.8464 150.81 50.7897 151.223 50.6737C151.611 50.5464 151.976 50.3589 152.305 50.118C152.655 49.8711 152.968 49.5763 153.235 49.2425L155.384 51.8355C154.723 52.6194 153.882 53.2319 152.931 53.6203C151.86 54.0648 150.709 54.2882 149.548 54.277C148.29 54.3011 147.049 53.9808 145.962 53.3509C144.92 52.7003 144.069 51.7886 143.492 50.7074ZM157.65 40.1668H161.592V53.9402H157.65V40.1668ZM157.853 36.7992C157.447 36.3951 157.219 35.8469 157.219 35.2754C157.219 34.7039 157.447 34.1558 157.853 33.7516C158.326 33.3573 158.929 33.1531 159.545 33.1791C160.156 33.15 160.756 33.3413 161.236 33.7179C161.642 34.1221 161.87 34.6702 161.87 35.2417C161.87 35.8133 161.642 36.3614 161.236 36.7656C160.762 37.1556 160.16 37.3592 159.545 37.3381C158.943 37.3778 158.347 37.2114 157.853 36.8666V36.7992ZM169.187 52.4248C169.714 52.9312 170.334 53.3314 171.013 53.6035C171.73 53.9093 172.501 54.0696 173.28 54.0749C174.414 54.0888 175.527 53.7664 176.477 53.1488C177.422 52.5087 178.181 51.6317 178.676 50.6063C179.211 49.453 179.489 48.1977 179.489 46.9272C179.489 45.6568 179.211 44.4015 178.676 43.2482C178.181 42.2323 177.429 41.362 176.494 40.7225C175.544 40.1049 174.431 39.7825 173.297 39.7964C172.52 39.795 171.75 39.9437 171.03 40.2342C170.361 40.4906 169.751 40.8801 169.237 41.3792C169.164 41.4648 169.097 41.5548 169.034 41.6486V40.0658H165.211V59.6651H169.153L169.187 52.4248ZM169.474 44.9993C169.726 44.4499 170.134 43.9863 170.649 43.6659C171.163 43.3456 171.76 43.1828 172.367 43.1977C172.977 43.1726 173.581 43.3311 174.1 43.6524C174.619 43.9737 175.029 44.443 175.276 44.9993C175.56 45.6288 175.698 46.3133 175.682 47.003C175.695 47.6815 175.556 48.3544 175.276 48.973C175.013 49.5119 174.61 49.9711 174.109 50.3032C173.597 50.6054 173.012 50.7626 172.417 50.7579C171.809 50.7954 171.203 50.6502 170.678 50.341C170.153 50.0318 169.734 49.5728 169.474 49.0236C169.195 48.3979 169.051 47.7211 169.051 47.0367C169.051 46.3523 169.195 45.6754 169.474 45.0498V44.9993ZM191.464 52.1049V53.8897H195.422V40.1837H191.515V41.9685C190.956 41.1259 190.128 40.4968 189.164 40.1837C188.565 39.9801 187.935 39.8832 187.303 39.8974C186.17 39.8775 185.057 40.1941 184.106 40.8067C183.147 41.4405 182.376 42.3184 181.873 43.3492C181.349 44.5086 181.079 45.7654 181.079 47.0367C181.079 48.3079 181.349 49.5648 181.873 50.7242C182.377 51.7489 183.133 52.6296 184.072 53.2836C184.99 53.9012 186.076 54.2243 187.184 54.2096C187.795 54.2147 188.402 54.1121 188.977 53.9066C189.528 53.7212 190.046 53.4544 190.517 53.1152C190.84 52.8349 191.129 52.5185 191.379 52.1723L191.464 52.1049ZM188.284 50.7915C187.684 50.7982 187.096 50.6283 186.592 50.3032C186.091 49.9766 185.692 49.5155 185.442 48.973C185.168 48.3404 185.026 47.6585 185.026 46.9693C185.026 46.2802 185.168 45.5983 185.442 44.9656C185.692 44.4194 186.098 43.9586 186.609 43.6411C187.121 43.3236 187.715 43.1635 188.318 43.1808C188.916 43.1711 189.503 43.3349 190.009 43.6523C190.518 43.963 190.92 44.4213 191.16 44.9656C191.432 45.6082 191.571 46.2989 191.568 46.9963C191.565 47.6937 191.42 48.3833 191.143 49.0236C190.895 49.5734 190.49 50.0388 189.979 50.362C189.468 50.6852 188.873 50.8521 188.267 50.8421L188.284 50.7915ZM212.236 53.8897V34.7282H208.278V41.598C208.061 41.3688 207.823 41.1602 207.567 40.975C207.087 40.6321 206.556 40.3652 205.994 40.1837C205.4 39.9866 204.777 39.8898 204.151 39.8974C202.999 39.8755 201.868 40.1981 200.903 40.8235C199.951 41.4732 199.183 42.3542 198.67 43.3829C198.109 44.5304 197.831 45.7944 197.858 47.0704C197.833 48.3515 198.111 49.6204 198.67 50.7747C199.184 51.7887 199.954 52.653 200.903 53.2836C201.856 53.9063 202.976 54.2289 204.117 54.2096C204.742 54.2159 205.364 54.125 205.96 53.9402C206.511 53.7654 207.034 53.5161 207.517 53.1994C207.856 52.9586 208.163 52.6757 208.43 52.3575L208.532 53.9571L212.236 53.8897ZM207.99 49.0404C207.725 49.5868 207.323 50.0564 206.823 50.4043C206.317 50.724 205.731 50.8934 205.132 50.8926C204.532 50.8963 203.945 50.7266 203.44 50.4043C202.941 50.0606 202.543 49.5895 202.29 49.0404C202.002 48.3999 201.858 47.7047 201.867 47.003C201.854 46.3011 201.999 45.6051 202.29 44.9656C202.534 44.4108 202.933 43.9375 203.44 43.6018C203.94 43.267 204.529 43.0908 205.132 43.0966C205.733 43.0929 206.323 43.2689 206.823 43.6018C207.329 43.9431 207.732 44.4144 207.99 44.9656C208.276 45.6064 208.414 46.3023 208.396 47.003C208.394 47.7325 208.227 48.452 207.906 49.1078L207.99 49.0404ZM228.289 50.7242C228.929 49.6011 229.256 48.328 229.236 47.0367C229.26 45.7449 228.933 44.4707 228.289 43.3492C227.656 42.2816 226.751 41.3989 225.667 40.7898C224.491 40.1818 223.186 39.8643 221.861 39.8643C220.536 39.8643 219.231 40.1818 218.055 40.7898C216.97 41.3989 216.066 42.2816 215.433 43.3492C214.762 44.4612 214.422 45.7399 214.452 47.0367C214.426 48.333 214.766 49.6104 215.433 50.7242C216.062 51.786 216.968 52.6587 218.055 53.2499C219.231 53.8579 220.536 54.1754 221.861 54.1754C223.186 54.1754 224.491 53.8579 225.667 53.2499C226.743 52.6492 227.637 51.7709 228.255 50.7074L228.289 50.7242ZM224.906 48.9562C224.636 49.5065 224.213 49.9682 223.688 50.2864C223.16 50.6043 222.554 50.7724 221.937 50.7724C221.32 50.7724 220.714 50.6043 220.186 50.2864C219.661 49.9682 219.238 49.5065 218.968 48.9562C218.664 48.3625 218.513 47.7029 218.529 47.0367C218.51 46.3594 218.661 45.688 218.968 45.0835C219.238 44.5286 219.66 44.0614 220.186 43.7365C220.71 43.4074 221.317 43.2328 221.937 43.2328C222.557 43.2328 223.164 43.4074 223.688 43.7365C224.207 44.0617 224.628 44.5215 224.906 45.0667C225.203 45.6795 225.343 46.3566 225.312 47.0367C225.318 47.7316 225.143 48.4163 224.804 49.0236L224.906 48.9562ZM253.053 53.9234V34.7282H248.993V41.598C248.776 41.3688 248.538 41.1602 248.283 40.975C247.802 40.6321 247.272 40.3652 246.709 40.1837C245.868 39.9165 244.978 39.8353 244.101 39.9458C243.225 40.0563 242.383 40.3558 241.635 40.8235C240.675 41.4638 239.904 42.3473 239.402 43.3829C238.827 44.5262 238.543 45.7923 238.573 47.0704C238.545 48.3537 238.829 49.6247 239.402 50.7747C239.906 51.7959 240.677 52.6628 241.635 53.2836C242.581 53.9088 243.696 54.2319 244.832 54.2096C246.036 54.2191 247.215 53.867 248.215 53.1994C248.554 52.9586 248.861 52.6757 249.128 52.3575L249.23 53.9571L253.053 53.9234ZM248.655 49.1078C248.389 49.6542 247.987 50.1237 247.488 50.4716C246.982 50.7914 246.395 50.9608 245.796 50.9599C245.197 50.9636 244.609 50.794 244.104 50.4716C243.609 50.1232 243.213 49.6534 242.954 49.1078C242.666 48.4672 242.522 47.772 242.531 47.0704C242.519 46.3684 242.663 45.6725 242.954 45.033C243.208 44.4839 243.605 44.0128 244.104 43.6691C244.604 43.3343 245.194 43.1582 245.796 43.164C246.398 43.1603 246.987 43.3362 247.488 43.6691C247.993 44.0105 248.396 44.4818 248.655 45.033C248.94 45.6738 249.079 46.3697 249.061 47.0704C249.075 47.7708 248.937 48.4659 248.655 49.1078ZM258.804 53.3004C260.613 54.2073 262.687 54.4459 264.657 53.9739C265.3 53.8198 265.924 53.5939 266.517 53.3004C267.123 52.9978 267.691 52.6248 268.209 52.1891L266.331 49.5624C265.869 49.9565 265.343 50.2696 264.775 50.4885C264.234 50.6873 263.66 50.7789 263.083 50.7579C262.3 50.7752 261.523 50.6079 260.817 50.2696C260.205 49.9711 259.698 49.4958 259.362 48.9057C259.188 48.5995 259.057 48.2709 258.973 47.9291H268.665V46.801C268.692 45.8599 268.537 44.9226 268.209 44.0395C267.916 43.2279 267.461 42.4834 266.872 41.8506C266.279 41.2357 265.565 40.7486 264.775 40.4194C263.948 40.0629 263.054 39.885 262.153 39.8974C261.186 39.885 260.226 40.0623 259.328 40.4194C258.484 40.7604 257.723 41.2771 257.095 41.9348C256.46 42.5954 255.96 43.3733 255.624 44.2248C255.279 45.1571 255.107 46.1441 255.116 47.1377C255.088 48.4171 255.409 49.6801 256.047 50.7915C256.711 51.8688 257.666 52.7382 258.804 53.3004ZM260.495 43.6186C261.062 43.3203 261.698 43.1752 262.339 43.1977C262.808 43.1918 263.271 43.2957 263.692 43.5007C264.086 43.7008 264.428 43.989 264.69 44.3426C264.932 44.7024 265.067 45.1225 265.079 45.555H259.091C259.145 45.2824 259.23 45.0169 259.345 44.7636C259.607 44.2773 260.007 43.8789 260.495 43.6186ZM100.392 63.3189L87.7563 95.1931H94.9961L97.3981 88.8283H109.425L111.827 95.1931H119.286L106.752 63.3189H100.392ZM99.5463 83.1203L101.238 78.6246C101.492 77.8837 101.745 77.1765 102.016 76.4525C102.287 75.7285 102.557 75.0213 102.794 74.2636C103.031 73.5059 103.251 72.8492 103.454 72.142L104.113 74.2804C104.384 75.0886 104.638 75.8463 104.875 76.604C105.111 77.3617 105.348 78.0016 105.568 78.5741L107.26 83.1708L99.5463 83.1203ZM139.788 85.5618C140.024 86.2676 140.144 87.0068 140.143 87.7507C140.169 89.2091 139.711 90.6353 138.841 91.8087C137.938 93.0469 136.725 94.028 135.322 94.6543C133.721 95.3407 131.991 95.6794 130.248 95.6477C128.144 95.6677 126.057 95.2729 124.107 94.4859C122.44 93.8225 120.959 92.765 119.794 91.4045L124.04 87.7507C124.927 88.6856 126.014 89.4106 127.22 89.8723C128.327 90.2963 129.501 90.5187 130.687 90.529C131.075 90.5307 131.461 90.4855 131.838 90.3943C132.175 90.3145 132.492 90.1654 132.768 89.9565C133.01 89.7847 133.203 89.5524 133.326 89.283C133.455 89.0212 133.519 88.7325 133.512 88.4411C133.529 88.1425 133.466 87.8447 133.33 87.5783C133.193 87.312 132.987 87.0867 132.734 86.9257C132.272 86.7117 131.798 86.5261 131.313 86.37C130.506 86.0826 129.681 85.8464 128.844 85.6628C127.529 85.3483 126.244 84.9201 125.004 84.3831C124.051 83.9474 123.185 83.3426 122.45 82.5983C121.848 81.9842 121.375 81.257 121.059 80.4592C120.742 79.6613 120.588 78.8087 120.606 77.9511C120.588 76.8919 120.851 75.8467 121.367 74.9203C121.896 74.0038 122.617 73.2114 123.481 72.5966C124.422 71.9381 125.461 71.4322 126.56 71.098C127.722 70.7435 128.931 70.5674 130.146 70.5761C131.412 70.5706 132.674 70.7233 133.901 71.0307C135.075 71.3247 136.211 71.7542 137.284 72.3104C138.277 72.8256 139.184 73.49 139.974 74.2804L136.303 78.3383C135.73 77.8306 135.113 77.3742 134.459 76.9745C133.796 76.5575 133.087 76.2185 132.345 75.9642C131.709 75.7366 131.041 75.6116 130.366 75.5938C129.924 75.595 129.482 75.6344 129.047 75.7116C128.708 75.7753 128.385 75.9071 128.099 76.0989C127.85 76.2702 127.642 76.4945 127.49 76.7556C127.356 77.022 127.287 77.3162 127.287 77.6143C127.324 77.9383 127.421 78.2526 127.575 78.5404C127.739 78.8448 127.993 79.0917 128.302 79.2476C128.763 79.4994 129.244 79.7134 129.74 79.8874C130.4 80.1232 131.296 80.3926 132.463 80.6957C133.744 81.0254 134.99 81.4764 136.185 82.0427C137.096 82.455 137.927 83.0252 138.638 83.7265C139.145 84.2522 139.536 84.8772 139.788 85.5618ZM153.049 71.0644H157.904V77.1597H153.049V95.1931H146.148V77.1597H141.75V71.0644H146.148V64.9522H153.049V71.0644ZM177.171 71.0644H184.072V95.1931H177.61L177.424 91.8255C177.231 92.117 177.022 92.398 176.798 92.6674C175.934 93.5873 174.885 94.3159 173.72 94.8058C172.526 95.3263 171.235 95.5903 169.931 95.5803C168.296 95.6663 166.671 95.2866 165.245 94.4859C163.975 93.6741 162.979 92.5008 162.387 91.1183C161.655 89.4769 161.303 87.6933 161.355 85.8986V71.0644H168.256V84.9051C168.232 85.8376 168.417 86.7636 168.798 87.616C169.11 88.31 169.622 88.896 170.269 89.2998C170.962 89.7178 171.76 89.9282 172.57 89.906C173.215 89.9095 173.856 89.8012 174.464 89.5861C175.005 89.3845 175.496 89.0686 175.902 88.66C176.308 88.2579 176.635 87.7839 176.866 87.2624C177.111 86.6989 177.237 86.0916 177.238 85.4776L177.171 71.0644ZM205.453 70.6939C205.883 70.7725 206.306 70.8794 206.722 71.0139L204.844 78.5741C204.431 78.3651 203.993 78.2068 203.542 78.1026C202.99 77.9542 202.421 77.8805 201.85 77.8837C201.195 77.8877 200.547 78.0133 199.939 78.2542C199.35 78.4857 198.819 78.8419 198.382 79.2981C197.943 79.7927 197.599 80.3635 197.367 80.9819C197.125 81.622 197.005 82.3015 197.012 82.9856V95.2773H190.06V71.0644H196.64L196.775 74.9203C196.991 74.5527 197.228 74.1985 197.486 73.8595C198.302 72.8686 199.308 72.0499 200.446 71.4516C201.527 70.8696 202.736 70.563 203.964 70.5592C204.464 70.5603 204.962 70.6054 205.453 70.6939ZM210.291 71.0644H217.192V95.1931H210.291V71.0644ZM216.786 59.8503C217.494 60.56 217.891 61.5193 217.891 62.5191C217.891 63.519 217.494 64.4783 216.786 65.1879C215.929 65.8812 214.845 66.2349 213.741 66.1814C212.637 66.2499 211.544 65.9212 210.663 65.2553C210.29 64.9131 209.999 64.4918 209.811 64.0226C209.624 63.5533 209.545 63.0481 209.58 62.5444C209.562 62.0519 209.652 61.5614 209.845 61.1076C210.038 60.6537 210.329 60.2475 210.697 59.9177C211.543 59.2021 212.632 58.8348 213.741 58.8906C214.84 58.8275 215.924 59.1692 216.786 59.8503ZM240.197 74.112C239.766 73.487 239.254 72.921 238.675 72.4282C237.902 71.8094 237.026 71.3306 236.087 71.0139C234.614 70.5436 233.057 70.3994 231.523 70.5913C229.989 70.7833 228.515 71.3068 227.206 72.1252C225.534 73.235 224.191 74.7697 223.316 76.5704C222.38 78.5986 221.895 80.8042 221.895 83.0361C221.895 85.2681 222.38 87.4736 223.316 89.5019C224.187 91.2942 225.51 92.8314 227.155 93.9639C228.754 95.0688 230.656 95.6567 232.602 95.6477C233.679 95.6593 234.75 95.4826 235.765 95.1257C236.718 94.7952 237.618 94.3302 238.438 93.745C239.071 93.2574 239.64 92.6916 240.129 92.0612V95.1089H246.963V71.0644H240.197V74.112ZM237.575 88.9294C236.667 89.5043 235.607 89.7973 234.53 89.7713C233.459 89.8023 232.403 89.5087 231.503 88.9294C230.629 88.3476 229.932 87.538 229.49 86.5889C229.01 85.483 228.763 84.2911 228.763 83.0866C228.763 81.8821 229.01 80.6903 229.49 79.5843C229.928 78.6371 230.626 77.8319 231.503 77.2607C232.408 76.694 233.461 76.4069 234.53 76.4357C235.604 76.4115 236.662 76.6981 237.575 77.2607C238.46 77.8225 239.16 78.6304 239.588 79.5843C240.057 80.693 240.299 81.8837 240.299 83.0866C240.299 84.2895 240.057 85.4803 239.588 86.5889C239.147 87.5493 238.436 88.3621 237.541 88.9294H237.575ZM271 87.7507C271.026 89.2091 270.568 90.6353 269.697 91.8087C268.786 93.0222 267.573 93.9795 266.179 94.5869C264.577 95.2714 262.847 95.61 261.104 95.5803C258.998 95.6187 256.906 95.2409 254.947 94.469C253.277 93.8105 251.795 92.7522 250.634 91.3877L254.896 87.7507C255.784 88.6856 256.87 89.4106 258.076 89.8723C259.156 90.2882 260.302 90.5105 261.46 90.529C261.853 90.5318 262.245 90.4865 262.627 90.3943C262.96 90.3178 263.272 90.1682 263.54 89.9565C263.789 89.787 263.987 89.5545 264.115 89.283C264.236 89.0186 264.3 88.7317 264.301 88.4411C264.319 88.1425 264.256 87.8447 264.119 87.5783C263.982 87.312 263.776 87.0867 263.523 86.9257C263.061 86.7117 262.587 86.5261 262.102 86.37C261.294 86.0847 260.47 85.8486 259.633 85.6628C258.315 85.321 257.03 84.8647 255.793 84.299C254.837 83.8589 253.967 83.2548 253.222 82.5141C252.635 81.9117 252.17 81.2029 251.852 80.4262C251.537 79.6099 251.382 78.7412 251.395 77.8669C251.377 76.8077 251.64 75.7625 252.156 74.8361C252.71 73.945 253.448 73.1815 254.321 72.5966C255.26 71.935 256.299 71.429 257.4 71.098C258.562 70.7435 259.771 70.5674 260.986 70.5761C263.457 70.5484 265.897 71.1267 268.09 72.2599C269.101 72.7831 270.021 73.4654 270.814 74.2804L267.16 78.3383C266.587 77.8306 265.97 77.3742 265.316 76.9745C264.652 76.5602 263.942 76.2213 263.202 75.9642C262.56 75.7365 261.887 75.6115 261.206 75.5938C260.769 75.5957 260.333 75.6351 259.903 75.7116C259.56 75.7783 259.233 75.9097 258.939 76.0989C258.695 76.2709 258.493 76.4953 258.347 76.7556C258.213 77.022 258.143 77.3162 258.144 77.6143C258.175 77.9373 258.266 78.2516 258.415 78.5404C258.587 78.8441 258.846 79.0901 259.159 79.2476C259.62 79.4994 260.101 79.7134 260.597 79.8874C261.257 80.1232 262.153 80.3926 263.32 80.6957C264.6 81.0282 265.846 81.4791 267.042 82.0427C267.953 82.455 268.783 83.0252 269.494 83.7265C270.001 84.2522 270.393 84.8772 270.645 85.5618C270.881 86.2676 271.001 87.0068 271 87.7507Z" fill="#556E56"/>
<path d="M8.98166 14.6068C8.3714 13.9943 7.61858 13.5413 6.7901 13.2882C5.96163 13.0351 5.08316 12.9896 4.23278 13.1559C3.3824 13.3221 2.58645 13.6949 1.91566 14.2411C1.24488 14.7873 0.720043 15.49 0.387799 16.2867C0.0555558 17.0834 -0.073803 17.9496 0.0112201 18.808C0.0962432 19.6665 0.393015 20.4908 0.875158 21.2077C1.3573 21.9245 2.00988 22.5116 2.7749 22.9169C3.53992 23.3222 4.39368 23.5331 5.26029 23.5309H10.521V18.3111C10.5214 17.6233 10.3856 16.9421 10.1215 16.3065C9.85739 15.6709 9.47006 15.0933 8.98166 14.6068ZM33.8302 3.67898L30.5487 0.479781C30.4587 0.387101 30.351 0.313394 30.2318 0.263053C30.1127 0.212712 29.9846 0.186768 29.8551 0.186768C29.7257 0.186768 29.5976 0.212712 29.4784 0.263053C29.3593 0.313394 29.2515 0.387101 29.1616 0.479781L25.9477 3.67898C25.7628 3.86498 25.6591 4.11608 25.6591 4.37775C25.6591 4.63943 25.7628 4.89053 25.9477 5.07653L29.1616 8.27573C29.2515 8.36841 29.3593 8.44211 29.4784 8.49246C29.5976 8.5428 29.7257 8.56874 29.8551 8.56874C29.9846 8.56874 30.1127 8.5428 30.2318 8.49246C30.351 8.44211 30.4587 8.36841 30.5487 8.27573L33.8302 5.07653C34.0151 4.89053 34.1189 4.63943 34.1189 4.37775C34.1189 4.11608 34.0151 3.86498 33.8302 3.67898ZM20.9915 9.65643H14.0393V16.56C14.0393 18.4088 14.7771 20.1818 16.0904 21.4891C17.4038 22.7964 19.185 23.5309 21.0423 23.5309H27.9945V16.6273C27.9945 14.7785 27.2566 13.0055 25.9433 11.6982C24.63 10.3909 22.8488 9.65643 20.9915 9.65643ZM31.5805 16.6273V23.5309H38.5327C40.39 23.5309 42.1712 22.7964 43.4845 21.4891C44.7978 20.1818 45.5356 18.4088 45.5356 16.56V9.65643H38.5834C36.7261 9.65643 34.9449 10.3909 33.6316 11.6982C32.3183 13.0055 31.5805 14.7785 31.5805 16.6273ZM12.314 27.0331V32.2697H47.3625V27.0331H12.314ZM58.1713 14.5394C57.4358 13.7751 56.4861 13.2489 55.4459 13.0294C54.4057 12.8099 53.3232 12.9072 52.3394 13.3088C51.3556 13.7103 50.516 14.3974 49.93 15.2807C49.344 16.1639 49.0388 17.2023 49.054 18.2606V23.5309H54.3485C55.7542 23.5309 57.1027 22.9761 58.0982 21.9883C59.0938 21.0004 59.6554 19.6599 59.6599 18.2606C59.6701 17.5733 59.5439 16.8908 59.2884 16.2522C59.033 15.6137 58.6534 15.0316 58.1713 14.5394ZM54.4161 35.7383H-0.000362613V84.5682C0.00412047 88.7363 1.67062 92.7321 4.633 95.6777C7.59538 98.6234 11.6113 100.278 15.7985 100.278C18.5203 100.28 21.2042 100.912 23.638 102.125C26.0719 103.338 28.1888 105.098 29.8213 107.266C31.4746 105.092 33.6163 103.334 36.0749 102.132C38.5334 100.93 41.2406 100.318 43.9794 100.345C46.0526 100.348 48.1058 99.9427 50.0215 99.154C51.9373 98.3653 53.678 97.2082 55.1439 95.749C56.6098 94.2898 57.7723 92.5571 58.5646 90.6501C59.3569 88.7431 59.7636 86.6993 59.7614 84.6356V35.8057L54.4161 35.7383ZM23.4104 77.3616C23.3741 77.413 23.3198 77.449 23.2582 77.4626C23.2582 77.6479 22.3786 77.631 22.2263 77.4626L21.702 77.2774L21.2283 77.1259C20.4775 76.949 19.6956 76.949 18.9448 77.1259L18.6403 77.2269L17.9299 77.4795C17.8114 77.5805 17.0503 77.6647 17.0164 77.4795C16.9416 77.4547 16.8735 77.4129 16.8177 77.3573C16.7619 77.3018 16.7199 77.2341 16.695 77.1596C16.5766 77.0249 16.695 76.6376 16.695 76.4524L18.099 74.2803L19.5368 71.7883C19.5965 71.6793 19.6845 71.5884 19.7916 71.5251C19.8988 71.4617 20.0211 71.4283 20.1458 71.4283C20.2704 71.4283 20.3927 71.4617 20.4999 71.5251C20.607 71.5884 20.6951 71.6793 20.7547 71.7883L22.1925 74.2803L23.4781 76.5197C23.6811 76.7049 23.6811 77.2606 23.4104 77.3616ZM42.457 75.863C42.3171 76.2992 42.0526 76.6854 41.6958 76.9743C41.2836 77.2704 40.7828 77.4188 40.275 77.3953H38.0929C37.5877 77.4184 37.0906 77.2634 36.6889 76.9575C36.3268 76.6735 36.0611 76.2855 35.9277 75.8462C35.8171 75.4515 35.7602 75.0437 35.7586 74.6339C35.7532 74.2045 35.8219 73.7773 35.9616 73.371C36.0827 73.0534 36.2357 72.7488 36.4183 72.4618C36.5041 72.3335 36.6235 72.2312 36.7637 72.1659C36.9039 72.1006 37.0594 72.0748 37.2133 72.0914H41.3406C41.4827 72.0913 41.6227 72.1249 41.7492 72.1893C41.8756 72.2537 41.9849 72.3471 42.068 72.4618C42.2513 72.7459 42.399 73.0512 42.5078 73.371C42.6462 73.7776 42.7148 74.2046 42.7108 74.6339C42.6902 75.0542 42.6046 75.4687 42.457 75.863ZM48.4958 67.2084L46.1277 70.3907C46.0031 70.5546 45.8471 70.6921 45.6687 70.7954C45.4903 70.8986 45.293 70.9655 45.0884 70.9921C44.8837 71.0188 44.6758 71.0046 44.4767 70.9505C44.2776 70.8964 44.0913 70.8034 43.9287 70.677L41.7128 68.9932H32.4432V87.3128L34.3546 89.687C34.4768 89.8404 34.5553 90.0237 34.5821 90.2176C34.6089 90.4116 34.583 90.6092 34.507 90.7897C34.4309 90.9703 34.3077 91.1273 34.15 91.2443C33.9922 91.3613 33.8059 91.434 33.6103 91.4549C31.1181 91.6906 28.6091 91.6906 26.1169 91.4549C25.9213 91.434 25.7349 91.3613 25.5772 91.2443C25.4195 91.1273 25.2962 90.9703 25.2202 90.7897C25.1442 90.6092 25.1182 90.4116 25.145 90.2176C25.1718 90.0237 25.2504 89.8404 25.3726 89.687L27.2671 87.3128V68.9258H18.0144L15.7816 70.6096C15.6242 70.7525 15.4383 70.8609 15.2361 70.9278C15.034 70.9947 14.8199 71.0186 14.6079 70.998C14.3958 70.9773 14.1905 70.9126 14.0051 70.808C13.8198 70.7034 13.6586 70.5613 13.5319 70.3907L11.2145 67.2084C11.0243 66.943 10.9221 66.6251 10.9221 66.2991C10.9221 65.9731 11.0243 65.6553 11.2145 65.3899L13.5319 62.2075C13.6534 62.0423 13.8072 61.9033 13.9842 61.7989C14.1611 61.6945 14.3575 61.6269 14.5614 61.6001C14.7654 61.5734 14.9726 61.588 15.1707 61.6432C15.3688 61.6984 15.5536 61.793 15.7139 61.9213L17.9468 63.6051H27.1994V51.5828L25.3895 49.3265C25.2625 49.1646 25.169 48.9792 25.1147 48.781C25.0603 48.5828 25.0461 48.3758 25.0729 48.1721C25.0996 47.9684 25.1668 47.7721 25.2706 47.5944C25.3743 47.4168 25.5125 47.2615 25.6771 47.1376L28.8741 44.7803C29.1376 44.5836 29.4581 44.4772 29.7875 44.4772C30.1169 44.4772 30.4374 44.5836 30.7009 44.7803L33.8979 47.1376C34.0644 47.2601 34.2044 47.4148 34.3094 47.5924C34.4145 47.77 34.4825 47.9668 34.5093 48.1712C34.5362 48.3755 34.5213 48.5832 34.4657 48.7817C34.41 48.9802 34.3147 49.1655 34.1855 49.3265L32.3755 51.5828V63.6724H41.6451L43.861 61.9886C44.0237 61.8622 44.21 61.7692 44.409 61.7151C44.6081 61.661 44.8161 61.6468 45.0207 61.6735C45.2253 61.7001 45.4226 61.767 45.601 61.8702C45.7795 61.9735 45.9355 62.111 46.06 62.2749L48.4281 65.4572C48.6202 65.7062 48.7299 66.0084 48.742 66.3221C48.7542 66.6358 48.6681 66.9455 48.4958 67.2084Z" fill="#556E56"/>
</g>
<defs>
<clipPath id="clip0_28_576">
<rect width="271" height="107.14" fill="white" transform="translate(0 0.193665)"/>
</clipPath>
</defs>
</svg>
