<svg width="270" height="108" viewBox="0 0 270 108" fill="none" xmlns="http://www.w3.org/2000/svg">
<g clip-path="url(#clip0_28_580)">
<path d="M121.442 37.2542C122.058 37.2819 122.661 37.0771 123.133 36.6805C123.532 36.2791 123.756 35.7363 123.756 35.1704C123.756 34.6046 123.532 34.0618 123.133 33.6604C122.653 33.283 122.053 33.0913 121.442 33.1205C120.827 33.0927 120.223 33.2976 119.752 33.6941C119.545 33.8816 119.381 34.1111 119.27 34.3672C119.159 34.6232 119.105 34.9 119.11 35.1789C119.09 35.4679 119.136 35.7577 119.245 36.0264C119.353 36.2952 119.521 36.5361 119.735 36.7311C120.225 37.0997 120.83 37.2848 121.442 37.2542Z" fill="white"/>
<path d="M95.9203 47.5465H99.5543C100.602 47.5609 101.633 47.2802 102.529 46.7366C103.405 46.2117 104.127 45.4671 104.625 44.5769C105.154 43.6347 105.422 42.5691 105.402 41.4893C105.423 40.4361 105.154 39.3975 104.625 38.486C104.125 37.6152 103.401 36.8931 102.529 36.3938C101.624 35.8756 100.597 35.6077 99.5543 35.6177H91.7793V53.7218H95.9203V47.5465ZM95.9203 39.3296H99.0473C99.4366 39.3185 99.8218 39.4117 100.163 39.5996C100.484 39.7822 100.748 40.0511 100.923 40.3757C101.117 40.7329 101.216 41.1337 101.211 41.5399C101.216 41.9568 101.117 42.3685 100.923 42.7378C100.739 43.0651 100.478 43.3429 100.163 43.5477C99.828 43.754 99.4406 43.8594 99.0473 43.8514H95.8696L95.9203 39.3296Z" fill="white"/>
<path d="M100.163 63.0521L87.6382 94.7722H94.8047L97.1879 88.4282H109.138L111.555 94.7722H118.958L106.484 63.0521H100.163ZM99.3345 82.7591L101.025 78.271C101.261 77.5455 101.515 76.8368 101.802 76.1282C102.09 75.4196 102.326 74.6941 102.563 73.9517C102.799 73.2093 103.019 72.5344 103.222 71.8258C103.425 72.5007 103.628 73.1924 103.864 73.9011C104.101 74.6097 104.371 75.4702 104.608 76.2126C104.845 76.955 105.081 77.613 105.284 78.1866L106.974 82.7591H99.3345Z" fill="white"/>
<path d="M168.43 52.3043C169.382 53.2144 170.611 53.7804 171.922 53.9119C173.233 54.0434 174.551 53.7328 175.665 53.0298C176.603 52.3938 177.355 51.5204 177.845 50.499C178.379 49.3519 178.655 48.1024 178.655 46.8377C178.655 45.5729 178.379 44.3234 177.845 43.1763C177.387 42.1788 176.677 41.3179 175.783 40.6792C174.844 40.0681 173.743 39.7508 172.622 39.7681C171.847 39.7614 171.078 39.9046 170.357 40.1899C169.725 40.4533 169.151 40.8373 168.667 41.3204C168.667 41.4216 168.532 41.5229 168.447 41.6072V40.0212H164.492V59.4076H168.43V52.3043ZM168.718 44.9142C168.963 44.3721 169.363 43.9143 169.867 43.5982C170.381 43.302 170.964 43.1461 171.557 43.1461C172.151 43.1461 172.734 43.302 173.248 43.5982C173.743 43.9205 174.135 44.377 174.38 44.9142C174.658 45.5382 174.802 46.2137 174.802 46.8967C174.802 47.5797 174.658 48.2552 174.38 48.8792C174.125 49.4151 173.728 49.8705 173.231 50.1953C172.714 50.4819 172.132 50.6322 171.54 50.6322C170.949 50.6322 170.367 50.4819 169.85 50.1953C169.353 49.8705 168.955 49.4151 168.701 48.8792C168.423 48.2552 168.279 47.5797 168.279 46.8967C168.279 46.2137 168.423 45.5382 168.701 44.9142H168.718Z" fill="white"/>
<path d="M158.881 37.2541C159.497 37.2818 160.1 37.077 160.572 36.6805C160.783 36.4933 160.951 36.2615 161.062 36.0018C161.173 35.7421 161.225 35.461 161.214 35.1788C161.231 34.8951 161.183 34.6112 161.075 34.3482C160.967 34.0853 160.8 33.8502 160.588 33.6603C160.106 33.287 159.508 33.0957 158.898 33.1204C158.27 33.1006 157.658 33.3243 157.191 33.7447C156.981 33.9293 156.814 34.1583 156.703 34.415C156.592 34.6718 156.539 34.9499 156.549 35.2295C156.529 35.5185 156.575 35.8082 156.684 36.077C156.792 36.3458 156.96 36.5867 157.174 36.7817C157.668 37.139 158.274 37.3067 158.881 37.2541Z" fill="white"/>
<path d="M257.337 53.0805C259.132 53.9897 261.194 54.2291 263.151 53.7554C263.787 53.596 264.405 53.3698 264.993 53.0805C265.602 52.7833 266.17 52.4091 266.684 51.967L264.807 49.3517C264.354 49.75 263.833 50.0643 263.269 50.2797C262.729 50.479 262.155 50.5707 261.579 50.5497C260.807 50.5668 260.042 50.3991 259.348 50.0604C258.733 49.774 258.225 49.3018 257.894 48.7106C257.72 48.4038 257.59 48.0745 257.506 47.732H267.123V46.6184C267.148 45.6825 266.999 44.7501 266.684 43.8682C266.388 43.0613 265.934 42.3214 265.348 41.6917C264.765 41.0725 264.056 40.5837 263.269 40.2575C262.448 39.9017 261.561 39.7234 260.666 39.7345C259.704 39.726 258.75 39.9096 257.861 40.2744C257.025 40.6065 256.27 41.1127 255.646 41.7592C255.014 42.4204 254.52 43.2004 254.193 44.0538C253.832 44.9782 253.654 45.9638 253.669 46.9559C253.651 48.226 253.971 49.4781 254.599 50.5834C255.26 51.6543 256.209 52.5192 257.337 53.0805ZM257.878 44.6444C258.119 44.1271 258.514 43.6969 259.01 43.4127C259.577 43.1138 260.212 42.9684 260.852 42.9909C261.315 42.9852 261.773 43.0892 262.188 43.2946C262.582 43.4857 262.92 43.7765 263.168 44.1382C263.419 44.4886 263.56 44.9055 263.574 45.3361V45.4205H257.624C257.68 45.1643 257.765 44.9153 257.878 44.6781V44.6444Z" fill="white"/>
<path d="M145.36 53.0468C146.438 53.6858 147.672 54.0129 148.926 53.9917C150.086 54.0063 151.237 53.7823 152.306 53.3337C153.254 52.9567 154.091 52.3474 154.74 51.5621L152.594 48.93C152.337 49.2682 152.029 49.5642 151.681 49.8073C151.352 50.0487 150.987 50.2366 150.599 50.3641C150.187 50.4825 149.76 50.5394 149.332 50.5329C148.699 50.5495 148.076 50.3793 147.54 50.0436C147.008 49.7225 146.576 49.2613 146.289 48.7106C145.978 48.1299 145.821 47.4794 145.833 46.8209C145.821 46.1571 145.978 45.5012 146.289 44.9144C146.573 44.3721 147 43.9172 147.523 43.5983C148.068 43.2684 148.695 43.0987 149.332 43.109C149.763 43.1132 150.191 43.1873 150.599 43.3284C151.004 43.4672 151.386 43.6663 151.732 43.9189C152.058 44.1505 152.349 44.4291 152.594 44.7456L154.757 42.181C154.13 41.3599 153.296 40.7195 152.34 40.3251C151.271 39.8764 150.12 39.6524 148.96 39.6671C147.691 39.6654 146.446 40.0096 145.36 40.6625C144.324 41.2772 143.472 42.1567 142.892 43.2103C142.273 44.3302 141.958 45.5925 141.979 46.8716C141.956 48.1455 142.271 49.4028 142.892 50.516C143.468 51.5683 144.321 52.4435 145.36 53.0468Z" fill="white"/>
<path d="M111.96 46.7364C111.957 46.3503 112.026 45.967 112.163 45.606C112.295 45.2688 112.49 44.9596 112.738 44.6949C112.981 44.4329 113.282 44.2307 113.617 44.1043C113.961 43.9691 114.328 43.9004 114.698 43.9019C115.029 43.8965 115.359 43.9362 115.679 44.02C115.937 44.0781 116.187 44.1689 116.422 44.2899L117.47 40.0043C117.241 39.9185 117.003 39.8563 116.76 39.8187C116.476 39.764 116.188 39.7357 115.898 39.7344C115.202 39.7357 114.517 39.9097 113.904 40.2405C113.254 40.5775 112.679 41.0424 112.214 41.6072C112.062 41.7928 111.943 42.0121 111.808 42.2146V40.0212H108.022V53.7216H111.96V46.7364Z" fill="white"/>
<path d="M160.892 40.0214H156.987V53.7217H160.892V40.0214Z" fill="white"/>
<path d="M238.862 73.7998C237.861 72.3712 236.427 71.3009 234.772 70.7459C233.734 70.4115 232.65 70.2463 231.56 70.2566C229.569 70.2527 227.622 70.84 225.966 71.9438C224.31 73.0487 222.979 74.5747 222.112 76.3643C221.187 78.3847 220.708 80.5799 220.708 82.8012C220.708 85.0224 221.187 87.2176 222.112 89.238C222.972 91.0265 224.29 92.5571 225.932 93.6754C227.51 94.7837 229.394 95.3734 231.324 95.3626C232.394 95.373 233.458 95.196 234.467 94.8396C235.409 94.4979 236.302 94.0326 237.121 93.4561C237.757 93.0099 238.326 92.4759 238.811 91.8701V94.9071H245.707V70.7459H238.946L238.862 73.7998ZM238.321 86.2009C237.891 87.1546 237.199 87.9676 236.327 88.5462C235.412 89.1387 234.341 89.4443 233.25 89.4236C232.193 89.4518 231.151 89.1639 230.259 88.5968C229.352 88.0118 228.63 87.1806 228.18 86.2009C227.7 85.1138 227.452 83.9387 227.452 82.7505C227.452 81.5624 227.7 80.3873 228.18 79.3001C228.611 78.3563 229.303 77.5546 230.174 76.9886C231.083 76.3813 232.157 76.069 233.25 76.0944C234.318 76.0686 235.37 76.356 236.276 76.9211C237.18 77.4924 237.893 78.321 238.321 79.3001C239.244 81.5315 239.244 84.0371 238.321 86.2684V86.2009Z" fill="white"/>
<path d="M211.075 34.5883H207.137V41.4216C206.92 41.1973 206.682 40.9939 206.427 40.8142C205.955 40.4675 205.43 40.1997 204.872 40.0212C204.276 39.8316 203.655 39.7349 203.029 39.7343C201.89 39.7201 200.773 40.043 199.818 40.6623C198.869 41.3027 198.105 42.1814 197.604 43.21C197.045 44.3486 196.767 45.6038 196.792 46.8713C196.765 48.1499 197.043 49.4165 197.604 50.5664C198.111 51.5774 198.874 52.4382 199.818 53.0635C200.763 53.69 201.878 54.0138 203.012 53.9915C203.631 53.9894 204.246 53.8985 204.838 53.7215C205.382 53.5463 205.9 53.2964 206.376 52.9791C206.711 52.7389 207.017 52.4616 207.289 52.1524L207.39 53.7215H211.075V34.5883ZM206.849 48.9298C206.599 49.4869 206.194 49.9611 205.683 50.2964C205.173 50.6029 204.588 50.7648 203.993 50.7648C203.397 50.7648 202.813 50.6029 202.303 50.2964C201.797 49.9544 201.394 49.4821 201.136 48.9298C200.868 48.2882 200.731 47.6001 200.731 46.9051C200.731 46.2101 200.868 45.5219 201.136 44.8804C201.395 44.3336 201.791 43.8628 202.286 43.5137C202.796 43.2073 203.38 43.0454 203.976 43.0454C204.571 43.0454 205.156 43.2073 205.666 43.5137C206.171 43.8558 206.574 44.3281 206.832 44.8804C207.1 45.5219 207.238 46.2101 207.238 46.9051C207.238 47.6001 207.1 48.2882 206.832 48.9298H206.849Z" fill="white"/>
<path d="M202.912 70.2566C201.691 70.2545 200.488 70.556 199.413 71.1339C198.281 71.7338 197.281 72.5542 196.472 73.5467C196.216 73.8781 195.984 74.2277 195.779 74.5928L195.644 70.7459H189.103V94.7721H196.066V82.5397C196.055 81.8578 196.181 81.1806 196.438 80.5487C196.662 79.9595 197.001 79.4205 197.435 78.9627C197.861 78.5007 198.387 78.1427 198.973 77.9166C199.579 77.6676 200.228 77.5414 200.883 77.5454C201.453 77.5435 202.021 77.6115 202.574 77.7479C203.021 77.854 203.453 78.0185 203.858 78.2372L205.717 70.7121C205.309 70.5753 204.891 70.4681 204.467 70.3916C203.954 70.2979 203.433 70.2527 202.912 70.2566Z" fill="white"/>
<path d="M176.341 85.1211C176.334 85.7013 176.213 86.2745 175.986 86.8083C175.749 87.3275 175.423 87.8014 175.022 88.2088C174.617 88.6073 174.134 88.9175 173.603 89.1199C172.994 89.3297 172.353 89.4325 171.71 89.4236C170.916 89.4487 170.131 89.2498 169.445 88.8499C168.797 88.446 168.285 87.8586 167.974 87.1627C167.6 86.3132 167.421 85.3907 167.45 84.4631V70.7458H160.571V85.5767C160.522 87.3568 160.868 89.1258 161.585 90.7565C162.197 92.1448 163.209 93.3197 164.492 94.131C165.875 94.9369 167.456 95.3402 169.056 95.2951C170.353 95.3068 171.638 95.0422 172.825 94.519C173.979 94.0334 175.016 93.3088 175.868 92.3931C176.101 92.1275 176.316 91.8456 176.51 91.5495L176.696 94.924H183.186V70.7458H176.324L176.341 85.1211Z" fill="white"/>
<path d="M216.078 70.7458H209.216V94.7721H216.078V70.7458Z" fill="white"/>
<path d="M123.403 40.0214H119.499V53.7217H123.403V40.0214Z" fill="white"/>
<path d="M251.556 34.5883H247.618V41.4216C247.407 41.1975 247.175 40.9941 246.925 40.8142C246.445 40.4705 245.915 40.203 245.353 40.0212C244.763 39.8304 244.147 39.7336 243.527 39.7343C242.388 39.7181 241.27 40.0412 240.316 40.6623C239.367 41.3027 238.603 42.1814 238.102 43.21C237.543 44.3486 237.265 45.6038 237.29 46.8713C237.263 48.1499 237.541 49.4165 238.102 50.5664C238.609 51.5774 239.372 52.4382 240.316 53.0635C241.256 53.6877 242.365 54.0114 243.494 53.9915C244.112 53.9894 244.727 53.8985 245.319 53.7215C245.87 53.5498 246.394 53.2998 246.874 52.9791C247.203 52.7388 247.504 52.4614 247.77 52.1524L247.871 53.7215H251.556V34.5883ZM247.33 48.9298C247.086 49.4857 246.687 49.96 246.181 50.2964C245.657 50.6085 245.059 50.7733 244.449 50.7733C243.839 50.7733 243.24 50.6085 242.716 50.2964C242.219 49.9542 241.827 49.4811 241.584 48.9298C241.304 48.2912 241.16 47.6019 241.16 46.9051C241.16 46.2083 241.304 45.519 241.584 44.8804C241.836 44.3348 242.227 43.8639 242.716 43.5137C243.24 43.2017 243.839 43.0369 244.449 43.0369C245.059 43.0369 245.657 43.2017 246.181 43.5137C246.68 43.8581 247.077 44.3302 247.33 44.8804C247.61 45.519 247.754 46.2083 247.754 46.9051C247.754 47.6019 247.61 48.2912 247.33 48.9298Z" fill="white"/>
<path d="M269.101 85.1887C268.855 84.5037 268.47 83.8773 267.968 83.3496C267.256 82.6562 266.434 82.086 265.534 81.6623C264.345 81.1036 263.105 80.6573 261.833 80.3294C260.683 80.0257 259.787 79.7558 259.128 79.5195C258.636 79.3499 258.161 79.1353 257.708 78.8784C257.402 78.7266 257.148 78.4854 256.982 78.1866C256.826 77.9004 256.733 77.5838 256.711 77.2586C256.708 76.9651 256.778 76.6754 256.914 76.415C257.054 76.1505 257.257 75.9245 257.506 75.757C257.791 75.5648 258.113 75.4327 258.452 75.3689C258.882 75.2907 259.317 75.2512 259.754 75.2508C260.428 75.2715 261.095 75.3967 261.731 75.622C262.461 75.8706 263.159 76.2048 263.81 76.6175C264.463 77.0181 265.08 77.4754 265.652 77.9842L269.286 73.9348C268.487 73.1568 267.576 72.5027 266.582 71.9945C265.506 71.4477 264.372 71.0232 263.202 70.729C261.981 70.421 260.726 70.2679 259.466 70.2735C258.258 70.265 257.055 70.4414 255.9 70.7965C254.81 71.1177 253.781 71.6197 252.858 72.2813C252.01 72.898 251.302 73.6855 250.779 74.5928C250.311 75.5283 250.096 76.5691 250.153 77.613C250.111 78.4547 250.238 79.2963 250.529 80.0877C250.819 80.8791 251.266 81.604 251.843 82.2191C252.584 82.9464 253.441 83.5452 254.379 83.9907C255.607 84.559 256.886 85.011 258.199 85.3405C259.196 85.5936 260.024 85.8298 260.649 86.0491C261.129 86.209 261.598 86.4007 262.052 86.6228C262.3 86.7813 262.502 87.0016 262.639 87.2621C262.775 87.5225 262.841 87.8139 262.83 88.1076C262.83 88.399 262.767 88.687 262.644 88.9512C262.521 89.2212 262.328 89.454 262.086 89.6261C261.812 89.8288 261.503 89.9776 261.173 90.0648C260.797 90.1552 260.411 90.2005 260.024 90.1998C258.867 90.1845 257.722 89.9616 256.644 89.5417C255.464 89.0762 254.402 88.356 253.534 87.4327L249.257 91.1109C250.423 92.4379 251.889 93.4676 253.534 94.1141C255.473 94.888 257.547 95.2666 259.635 95.2277C261.377 95.2626 263.107 94.9231 264.706 94.2322C266.093 93.6291 267.299 92.6754 268.205 91.4652C269.061 90.2953 269.517 88.8815 269.506 87.4327C269.499 86.6671 269.362 85.9083 269.101 85.1887Z" fill="white"/>
<path d="M152.424 64.6718H145.562V70.7458H141.201V76.8199H145.562V94.7721H152.424V76.8199H157.224V70.7458H152.424V64.6718Z" fill="white"/>
<path d="M227.031 50.6172C227.678 49.5009 228.006 48.2285 227.977 46.939C228.009 45.6545 227.681 44.3867 227.031 43.2777C226.413 42.2065 225.513 41.3253 224.428 40.7299C223.278 40.1039 221.985 39.7843 220.676 39.802C219.355 39.7846 218.052 40.104 216.889 40.7299C215.808 41.3294 214.908 42.2097 214.287 43.2777C213.631 44.3853 213.298 45.653 213.323 46.939C213.3 48.2301 213.633 49.5026 214.287 50.6172C214.909 51.6759 215.809 52.545 216.889 53.1311C218.049 53.765 219.354 54.085 220.676 54.0591C221.986 54.0854 223.281 53.7652 224.428 53.1311C225.512 52.5493 226.413 51.6791 227.031 50.6172ZM223.65 48.9299C223.367 49.4651 222.937 49.9084 222.41 50.2073C221.883 50.5063 221.281 50.6485 220.676 50.6172C220.08 50.611 219.497 50.448 218.985 50.1447C218.472 49.812 218.053 49.353 217.768 48.8118C217.479 48.2088 217.329 47.5486 217.329 46.8799C217.329 46.2112 217.479 45.5511 217.768 44.948C218.053 44.4068 218.472 43.9478 218.985 43.6151C219.487 43.2843 220.075 43.1083 220.676 43.1089C221.276 43.1122 221.863 43.2879 222.366 43.6151C222.877 43.9387 223.291 44.3932 223.566 44.9312C223.862 45.5397 224.002 46.2124 223.972 46.8884C224.011 47.5433 223.889 48.1979 223.617 48.7949L223.65 48.9299Z" fill="white"/>
<path d="M212.613 58.6483C211.514 58.5871 210.435 58.9564 209.604 59.6775C209.256 60.0253 208.979 60.4383 208.791 60.8928C208.602 61.3473 208.505 61.8345 208.505 62.3264C208.505 62.8184 208.602 63.3056 208.791 63.7601C208.979 64.2146 209.256 64.6276 209.604 64.9754C210.472 65.6431 211.553 65.9729 212.647 65.9034C213.745 65.9626 214.825 65.6072 215.672 64.9079C216.023 64.5612 216.301 64.1486 216.491 63.6939C216.681 63.2393 216.779 62.7516 216.779 62.2589C216.779 61.7663 216.681 61.2786 216.491 60.8239C216.301 60.3693 216.023 59.9567 215.672 59.61C214.808 58.9205 213.717 58.5776 212.613 58.6483Z" fill="white"/>
<path d="M190.454 51.95V53.7216H194.376V40.0213H190.488V41.7929C190.245 41.4298 189.949 41.1056 189.609 40.8311C189.179 40.4742 188.686 40.1996 188.156 40.0213C187.561 39.8265 186.939 39.7296 186.313 39.7344C185.179 39.7154 184.066 40.0388 183.119 40.6624C182.176 41.2909 181.417 42.1586 180.921 43.1764C180.398 44.3293 180.127 45.5804 180.127 46.8461C180.127 48.1119 180.398 49.363 180.921 50.5159C181.412 51.5369 182.164 52.4101 183.102 53.0467C184.006 53.6699 185.08 53.9999 186.178 53.9916C186.789 53.9967 187.395 53.8939 187.97 53.6879C188.513 53.4988 189.025 53.2316 189.491 52.8949C189.853 52.6242 190.177 52.3065 190.454 51.95ZM187.294 50.6171C186.696 50.6268 186.109 50.4627 185.603 50.1447C185.115 49.8074 184.725 49.3476 184.471 48.8118C184.189 48.1865 184.05 47.5063 184.065 46.8208C184.049 46.1352 184.187 45.4546 184.471 44.8299C184.72 44.2909 185.111 43.83 185.603 43.497C186.113 43.191 186.699 43.0332 187.294 43.0414C187.888 43.0376 188.472 43.195 188.984 43.497C189.48 43.8253 189.873 44.2875 190.116 44.8299C190.4 45.4546 190.539 46.1352 190.522 46.8208C190.566 47.5433 190.438 48.2658 190.15 48.9299C189.902 49.4694 189.51 49.9305 189.018 50.2628C188.488 50.5424 187.89 50.6653 187.294 50.6171Z" fill="white"/>
<path d="M138.125 83.3496C137.413 82.6562 136.59 82.086 135.691 81.6623C134.501 81.1036 133.262 80.6573 131.989 80.3294C130.84 80.0257 129.944 79.7558 129.285 79.5195C128.786 79.3525 128.305 79.1378 127.848 78.8784C127.545 78.7209 127.293 78.4811 127.121 78.1866C126.973 77.8972 126.881 77.5823 126.851 77.2586C126.848 76.9651 126.918 76.6754 127.054 76.415C127.199 76.1542 127.401 75.9293 127.645 75.757C127.937 75.5647 128.265 75.4328 128.609 75.3689C129.033 75.2915 129.463 75.2519 129.893 75.2508C130.568 75.2687 131.236 75.394 131.871 75.622C132.605 75.8738 133.308 76.2077 133.967 76.6175C134.617 77.0222 135.233 77.4793 135.809 77.9842L139.426 73.9348C138.633 73.157 137.727 72.5029 136.739 71.9945C135.664 71.4459 134.53 71.0214 133.358 70.729C132.143 70.421 130.894 70.2679 129.64 70.2735C128.431 70.265 127.229 70.4414 126.074 70.7965C124.983 71.1177 123.955 71.6197 123.031 72.2813C122.179 72.8973 121.465 73.6847 120.935 74.5928C120.446 75.5234 120.202 76.5625 120.225 77.613C120.204 78.4663 120.355 79.3151 120.668 80.1093C120.982 80.9034 121.452 81.6266 122.051 82.236C122.785 82.971 123.643 83.5708 124.586 84.0076C125.814 84.5759 127.093 85.0278 128.406 85.3574C129.403 85.6105 130.215 85.8467 130.857 86.066C131.336 86.229 131.804 86.4206 132.26 86.6397C132.508 86.7982 132.71 87.0185 132.846 87.2789C132.983 87.5393 133.048 87.8308 133.037 88.1245C133.038 88.4159 132.974 88.7038 132.851 88.9681C132.719 89.2372 132.521 89.4691 132.277 89.643C132.009 89.8455 131.705 89.9945 131.381 90.0816C130.999 90.1716 130.607 90.2169 130.215 90.2166C129.058 90.1999 127.913 89.9771 126.834 89.5586C125.641 89.0995 124.567 88.3787 123.69 87.4496L119.414 91.1109C120.575 92.4621 122.049 93.5103 123.707 94.1648C125.646 94.9399 127.721 95.3186 129.809 95.2783C131.551 95.3132 133.28 94.9737 134.88 94.2829C136.267 93.6798 137.473 92.7261 138.378 91.5158C139.229 90.3439 139.679 88.9302 139.663 87.4833C139.672 86.7206 139.552 85.9619 139.308 85.2393C139.047 84.5352 138.645 83.892 138.125 83.3496Z" fill="white"/>
<path d="M137.652 40.3757C136.924 39.9846 136.115 39.7659 135.288 39.7367C134.462 39.7074 133.64 39.8683 132.885 40.207C132.213 40.4958 131.604 40.9144 131.094 41.4387C130.994 41.5494 130.904 41.6679 130.823 41.793L130.739 40.0214H127.003V53.7218H130.925V45.5555C130.924 45.2243 130.993 44.8965 131.128 44.5938C131.267 44.3003 131.462 44.0366 131.702 43.8177C132.227 43.349 132.908 43.0906 133.612 43.0922C134.047 43.0573 134.482 43.1512 134.863 43.3621C135.209 43.5514 135.479 43.8559 135.624 44.2226C135.793 44.6931 135.873 45.1908 135.86 45.6905V53.7724H139.798V45.3362C139.847 44.2579 139.662 43.1819 139.258 42.1811C138.927 41.4248 138.365 40.7927 137.652 40.3757Z" fill="white"/>
<path d="M54.7801 35.9382H0V84.8681C0 88.967 1.63118 92.8981 4.5347 95.7965C7.43822 98.6949 11.3762 100.323 15.4824 100.323C19.2779 100.304 22.9819 101.485 26.0632 103.698C27.3972 104.653 28.5918 105.789 29.6127 107.072C30.6439 105.792 31.8435 104.657 33.1791 103.698C36.2604 101.485 39.9644 100.304 43.7599 100.323C47.8647 100.319 51.8001 98.689 54.7027 95.7916C57.6052 92.8941 59.2378 88.9657 59.2423 84.8681V35.9382H54.7801ZM54.7801 84.8681C54.7756 87.7843 53.6131 90.5798 51.5474 92.6419C49.4817 94.704 46.6812 95.8644 43.7599 95.8689C38.7316 95.8787 33.8495 97.5586 29.8831 100.644L29.6127 100.846L29.3592 100.644C27.9773 99.5671 26.4741 98.6554 24.8801 97.9273C21.9358 96.564 18.728 95.8613 15.4824 95.8689C12.5581 95.8689 9.75334 94.7104 7.68396 92.6479C5.61458 90.5853 4.44976 87.7872 4.44529 84.8681V40.3757H54.7801V84.8681Z" fill="white"/>
<path d="M29.3077 7.44072C29.4099 7.54584 29.5496 7.60647 29.6964 7.60945C29.8483 7.60729 29.9936 7.54687 30.1021 7.44072L33.3473 4.20123C33.4536 4.09292 33.5141 3.94793 33.5163 3.79629C33.5116 3.65016 33.4511 3.51136 33.3473 3.40823L30.1021 0.168734C30.0507 0.112968 29.9879 0.0689995 29.9178 0.0398679C29.8478 0.0107364 29.7722 -0.00286294 29.6964 1.02864e-05C29.6231 -0.0027017 29.5501 0.0110504 29.4828 0.0402522C29.4155 0.0694541 29.3557 0.113361 29.3077 0.168734L26.0624 3.37448C26.0076 3.42504 25.9639 3.48636 25.934 3.5546C25.9041 3.62283 25.8887 3.69651 25.8887 3.77098C25.8887 3.84546 25.9041 3.91914 25.934 3.98737C25.9639 4.05561 26.0076 4.11693 26.0624 4.16749L29.3077 7.44072Z" fill="white"/>
<path d="M20.8578 22.609H27.399V16.0794C27.3945 14.3326 26.6962 12.659 25.4573 11.4254C24.2184 10.1919 22.54 9.49914 20.7902 9.49915H14.249V16.0288C14.2535 17.7755 14.9518 19.4492 16.1907 20.6827C17.4296 21.9162 19.108 22.609 20.8578 22.609Z" fill="white"/>
<path d="M54.442 12.8062C53.1375 12.8062 51.8865 13.3235 50.964 14.2442C50.0416 15.165 49.5234 16.4138 49.5234 17.716V22.609H54.442C55.111 22.6482 55.781 22.5505 56.4109 22.3219C57.0407 22.0933 57.6171 21.7386 58.1047 21.2797C58.5923 20.8207 58.9807 20.2671 59.2463 19.6528C59.5118 19.0385 59.6487 18.3766 59.6487 17.7076C59.6487 17.0386 59.5118 16.3766 59.2463 15.7624C58.9807 15.1481 58.5923 14.5945 58.1047 14.1355C57.6171 13.6765 57.0407 13.3219 56.4109 13.0933C55.781 12.8647 55.111 12.767 54.442 12.8062Z" fill="white"/>
<path d="M32.0127 22.6089H38.6215C40.3653 22.6089 42.0376 21.9174 43.2707 20.6866C44.5037 19.4557 45.1964 17.7863 45.1964 16.0456V9.44849H38.5877C36.8439 9.44849 35.1715 10.14 33.9385 11.3708C32.7054 12.6017 32.0127 14.2711 32.0127 16.0118V22.6089Z" fill="white"/>
<path d="M46.954 26.9958H12.4565V31.4333H46.954V26.9958Z" fill="white"/>
<path d="M4.9196 22.6089H9.78744V17.7496C9.78744 16.7886 9.50195 15.8491 8.96706 15.05C8.43218 14.2509 7.67192 13.6281 6.78244 13.2603C5.89296 12.8925 4.9142 12.7963 3.96993 12.9838C3.02566 13.1712 2.1583 13.634 1.47752 14.3136C0.796738 14.9932 0.333121 15.859 0.145294 16.8016C-0.0425325 17.7442 0.053867 18.7213 0.422302 19.6092C0.790738 20.4971 1.41466 21.256 2.21517 21.7899C3.01569 22.3239 3.95683 22.6089 4.9196 22.6089Z" fill="white"/>
<path d="M21.9728 74.2385L20.5362 71.7245C20.4766 71.6153 20.3886 71.5242 20.2815 71.4607C20.1744 71.3973 20.0522 71.3638 19.9277 71.3638C19.8031 71.3638 19.6809 71.3973 19.5738 71.4607C19.4668 71.5242 19.3788 71.6153 19.3192 71.7245L17.8318 74.2385L16.4796 76.55C16.3782 76.7356 16.2937 77.1405 16.4796 77.2755C16.5074 77.3513 16.5523 77.4198 16.611 77.4754C16.6696 77.531 16.7404 77.5723 16.8177 77.5961C16.8177 77.7648 17.6121 77.6973 17.7304 77.5961L18.4403 77.343L18.7614 77.2417C19.5106 77.056 20.294 77.056 21.0432 77.2417L21.5165 77.3936L22.0574 77.5792C22.2095 77.7142 23.1391 77.731 23.0884 77.5792C23.1503 77.5557 23.2075 77.5214 23.2574 77.4779C23.494 77.3767 23.4602 76.8199 23.2574 76.5668L21.9728 74.2385Z" fill="white"/>
<path d="M41.8837 72.3825C41.8097 72.2615 41.7052 72.1619 41.5807 72.0938C41.4561 72.0257 41.3158 71.9914 41.1738 71.9944H36.9989C36.8591 71.9928 36.721 72.0259 36.5971 72.0907C36.4732 72.1555 36.3674 72.25 36.289 72.3656C36.097 72.6477 35.9435 72.9541 35.8327 73.2767C35.6862 73.688 35.6174 74.1228 35.6299 74.559C35.6232 74.9758 35.6801 75.3911 35.7989 75.7907C35.9248 76.2391 36.1913 76.6353 36.5595 76.9212C36.9698 77.2227 37.47 77.3772 37.9793 77.3599H40.1766C40.6624 77.3861 41.1428 77.2468 41.539 76.9648C41.9351 76.6827 42.2236 76.2747 42.3569 75.8076C42.6162 74.9896 42.6162 74.1116 42.3569 73.2936C42.2338 72.9732 42.0751 72.6676 41.8837 72.3825Z" fill="white"/>
<path d="M13.3019 70.2903C13.4264 70.4544 13.5822 70.5923 13.7605 70.6957C13.9388 70.7992 14.1359 70.8662 14.3404 70.8929C14.5449 70.9196 14.7527 70.9054 14.9516 70.8512C15.1506 70.797 15.3367 70.7038 15.4992 70.5771L17.7472 68.7886H27.0434V87.3482L25.1166 89.7441C24.9953 89.9006 24.9179 90.0866 24.8925 90.2829C24.8671 90.4791 24.8945 90.6786 24.972 90.8608C25.0494 91.043 25.1742 91.2012 25.3333 91.3193C25.4924 91.4374 25.6801 91.511 25.8772 91.5326C28.3844 91.7688 30.9084 91.7688 33.4156 91.5326C33.6127 91.511 33.8004 91.4374 33.9595 91.3193C34.1186 91.2012 34.2433 91.043 34.3208 90.8608C34.3983 90.6786 34.4257 90.4791 34.4003 90.2829C34.3749 90.0866 34.2975 89.9006 34.1762 89.7441L32.2831 87.382V68.8224H41.6132L43.9457 70.5771C44.1082 70.7038 44.2943 70.797 44.4933 70.8512C44.6922 70.9054 44.9 70.9196 45.1045 70.8929C45.309 70.8662 45.5061 70.7992 45.6844 70.6957C45.8627 70.5923 46.0185 70.4544 46.143 70.2903L48.5431 67.0677C48.7394 66.8011 48.8453 66.4789 48.8453 66.1481C48.8453 65.8173 48.7394 65.4951 48.5431 65.2286L46.143 62.0228C46.0213 61.8555 45.867 61.7144 45.6893 61.608C45.5117 61.5016 45.3143 61.4322 45.1091 61.4038C44.9039 61.3754 44.6951 61.3887 44.4952 61.4429C44.2952 61.4971 44.1083 61.5911 43.9457 61.7191L41.6977 63.5076H32.2831V51.292L34.1086 48.9299C34.3473 48.6034 34.449 48.197 34.3922 47.7968C34.3354 47.3967 34.1245 47.0344 33.8043 46.7871L30.5929 44.4081C30.3233 44.2107 29.9976 44.1042 29.6633 44.1042C29.3289 44.1042 29.0033 44.2107 28.7337 44.4081L25.5222 46.7871C25.2036 47.0367 24.9964 47.4018 24.9458 47.803C24.8952 48.2042 25.0051 48.6091 25.2518 48.9299L27.0434 51.292V63.5076H17.7472L15.4992 61.7191C15.3366 61.5911 15.1497 61.4971 14.9497 61.4429C14.7498 61.3887 14.541 61.3754 14.3358 61.4038C14.1306 61.4322 13.9332 61.5016 13.7556 61.608C13.5779 61.7144 13.4236 61.8555 13.3019 62.0228L10.9018 65.2286C10.7055 65.4951 10.5996 65.8173 10.5996 66.1481C10.5996 66.4789 10.7055 66.8011 10.9018 67.0677L13.3019 70.2903Z" fill="white"/>
</g>
<defs>
<clipPath id="clip0_28_580">
<rect width="269.472" height="107.14" fill="white"/>
</clipPath>
</defs>
</svg>
